<svg xmlns="http://www.w3.org/2000/svg" width="261" height="88" viewBox="0 0 261 88">
  <g fill="none">
    <path fill="#717070" d="M10.9 18.3C12.1 18.3 13.2 18 14.2 17.5 15.2 16.9 16 16.2 16.6 15.2L19 17C18.1 18.3 16.9 19.3 15.5 20 14.1 20.7 12.6 21.1 10.9 21.1 9.5 21.1 8.2 20.8 7 20.3 5.8 19.8 4.7 19 3.8 18.1 2.9 17.2 2.2 16.1 1.7 14.9 1.2 13.7.9 12.4.9 10.9.9 9.5 1.2 8.2 1.7 6.9 2.2 5.7 2.9 4.6 3.8 3.7 4.7 2.8 5.8 2.1 7 1.5 8.2.9 9.5.7 10.9.7 12.6.7 14.1 1.1 15.5 1.8 16.9 2.5 18.1 3.5 19 4.8L16.6 6.6C16 5.7 15.2 4.9 14.2 4.3 13.2 3.7 12.1 3.5 10.9 3.5 9.9 3.5 9 3.7 8.2 4.1 7.4 4.5 6.6 5 6 5.7 5.4 6.4 4.9 7.1 4.5 8 4.1 8.9 3.9 9.8 3.9 10.9 3.9 12 4.1 12.9 4.5 13.8 4.9 14.7 5.4 15.5 6 16.1 6.6 16.8 7.4 17.3 8.2 17.7 9 18.1 9.9 18.3 10.9 18.3zM37.3 10C37 10.8 36.7 11.6 36.1 12.2 35.6 12.9 35 13.4 34.2 13.9 34.2 13.9 34.1 14 34.1 14 34.1 14 34 14 34 14.1L37.6 21.1 34.5 21.1 31.4 15C31.2 15 31 15.1 30.7 15.1 30.5 15.1 30.2 15.1 30 15.1L26.4 15.1 26.4 21.1 23.4 21.1 23.4.8 30 .8C30.8.8 31.6.9 32.3 1.1 33 1.3 33.7 1.6 34.3 2 35.8 2.9 36.8 4.3 37.3 6 37.3 6.1 37.3 6.2 37.4 6.2 37.4 6.3 37.4 6.4 37.5 6.4L37.5 6.5C37.5 6.6 37.6 6.7 37.6 6.8 37.6 6.9 37.6 7 37.6 7.1L37.6 7.1C37.6 7.2 37.6 7.3 37.6 7.4 37.6 7.5 37.6 7.6 37.6 7.8L37.6 7.8 37.6 8C37.6 8.1 37.6 8.2 37.6 8.3 37.6 8.4 37.6 8.5 37.6 8.6L37.6 8.7C37.6 8.8 37.6 8.9 37.6 9 37.6 9.1 37.6 9.2 37.5 9.3L37.5 9.4C37.4 9.7 37.3 9.9 37.3 10zM30.3 12.5C30.9 12.5 31.5 12.4 32 12.1 32.5 11.8 32.9 11.5 33.3 11.1 33.7 10.7 34 10.2 34.2 9.6 34.4 9 34.5 8.5 34.5 7.9 34.5 7.3 34.4 6.8 34.2 6.2 34 5.6 33.7 5.2 33.3 4.7 32.9 4.3 32.5 3.9 32 3.7 31.5 3.4 30.9 3.3 30.3 3.3L26.3 3.3 26.3 12.4 30.3 12.4 30.3 12.5zM57.5.8L57.5.8 51.2 14.5 51.2 21.2 51.2 21.2 48.2 21.2 48.2 21.2 48.2 14.5 42 .8 42 .8 42 .8 45.3.8 49.8 11.7 54.3.8zM73.1 11C73.2 11.1 73.3 11.2 73.5 11.3 73.6 11.4 73.7 11.5 73.8 11.6 74.2 12.1 74.6 12.7 74.8 13.4 75 14.1 75.2 14.7 75.2 15.4 75.2 15.6 75.2 15.7 75.2 15.8 75.1 16.8 74.8 17.8 74.3 18.6 73.8 19.4 73.1 20 72.3 20.4 71.5 20.8 70.6 21.1 69.6 21.1L67.8 21.1C66.8 21.1 65.9 20.9 65.1 20.4 64.3 19.9 63.6 19.3 63.1 18.6 63 18.4 62.8 18.1 62.7 17.8L65.3 15.8C65.4 16.2 65.5 16.5 65.6 16.8 65.8 17.1 66 17.4 66.3 17.6 66.6 17.8 66.9 18 67.2 18.1 67.5 18.2 67.9 18.3 68.3 18.3L69.4 18.3C70.2 18.3 70.8 18.1 71.4 17.6 72 17.1 72.3 16.5 72.4 15.8 72.4 15.7 72.4 15.7 72.4 15.6 72.4 15.5 72.4 15.5 72.4 15.4 72.4 15 72.3 14.6 72.2 14.3 72.1 13.9 71.8 13.6 71.6 13.4 71.3 13.1 71 12.9 70.7 12.7 70.3 12.5 70 12.4 69.6 12.4L68 12.4 67.9 12.4C67.2 12.4 66.6 12.2 66 12 65.4 11.8 64.9 11.4 64.4 11 64.1 10.8 63.9 10.6 63.7 10.3 63.3 9.8 62.9 9.2 62.7 8.5 62.5 7.8 62.3 7.2 62.3 6.5L62.3 6.1C62.4 5 62.7 4.1 63.3 3.3 63.8 2.5 64.5 1.9 65.3 1.5 66.1 1 67 .8 68 .8L69.8.8C70.8.8 71.7 1 72.5 1.5 73.3 2 74 2.6 74.5 3.3 74.6 3.4 74.6 3.5 74.7 3.6 74.8 3.7 74.8 3.8 74.9 3.9L72.4 5.9C72.2 5.2 71.9 4.7 71.3 4.2 70.8 3.8 70.1 3.5 69.4 3.5L68 3.5C67.6 3.5 67.3 3.6 66.9 3.7 66.6 3.8 66.3 4 66 4.2 65.7 4.4 65.5 4.7 65.3 5 65.1 5.3 65 5.6 65 6 65 6.1 65 6.1 65 6.2 65 6.3 65 6.3 65 6.4 65 6.8 65.1 7.2 65.2 7.5 65.3 7.9 65.6 8.2 65.8 8.4 66.1 8.7 66.4 8.9 66.7 9.1 67.1 9.3 67.4 9.4 67.8 9.4L69.4 9.4 69.5 9.4C70.2 9.4 70.8 9.6 71.4 9.8 72 10.2 72.6 10.6 73.1 11zM79.5.8L92.5.8 92.5 3.7 87.5 3.7 87.5 21.1 84.6 21.1 84.6 3.7 79.6 3.7 79.6.8zM96.8 21.1L105.1.8 113.4 21.1 110.4 21.1 109.8 19.5 100.5 19.5 99.9 21.1 96.8 21.1zM101.5 16.9L108.8 16.9 105.2 7.6 101.5 16.9zM120.8 18.2L129.1 18.2 129.1 21.1 117.8 21.1 117.8.8 120.8.8zM136.4 18.2L144.7 18.2 144.7 21.1 133.4 21.1 133.4.8 136.4.8zM149.1.8L152.1.8 152.1 21.1 149.1 21.1zM169.4.8L161.1 18.2 169.3 18.2 169.3 18.2 169.3 21.1 169.3 21.1 156.4 21.1 156.4 21.1 164.6 3.6 157.5 3.6 157.5.7 157.5.7 169.4.8zM176.7 18.2L185.7 18.2 185.7 21.1 173.7 21.1 173.7.8 185.5.8 185.5 3.7 176.7 3.7 176.7 6.9 176.7 8.6 176.7 10.6 184.7 10.6 184.7 13.4 176.7 13.4z" transform="translate(75 40)"/>
    <path fill="#A5D9DC" d="M46.8 38.4L34.2 87.2 17.9 76.8 30.5 0.3 48.9 30.2z"/>
    <path fill="#D2ECED" d="M11.9 39.9L7.6 70.2 5.2 68.6 0.3 33.4z"/>
    <path fill="#BBE2E5" d="M25.7 19.7L16.5 75.9 9.1 71.1 18.1 8z"/>
    <path fill="#8ECFD3" d="M58.9 36.2L48.4 76.4 41.5 82.1 36 86.6 47.8 41z"/>
  </g>
</svg>
